<svg width="192" height="192" viewBox="0 0 192 192" xmlns="http://www.w3.org/2000/svg">
  <!-- Background -->
  <rect width="192" height="192" fill="#FFF8F0" rx="38.4"/>
  
  <!-- Decorative circle -->
  <circle cx="96" cy="96" r="80" fill="#FFE4D6" opacity="0.5"/>
  
  <!-- Bakery icon - Cake -->
  <g transform="translate(48, 48)">
    <!-- Cake base -->
    <rect x="0" y="48" width="96" height="48" fill="#F97316" rx="8"/>
    <rect x="4" y="52" width="88" height="40" fill="#FB923C" rx="6"/>
    
    <!-- Cake layers -->
    <rect x="8" y="32" width="80" height="24" fill="#EF4444" rx="4"/>
    <rect x="12" y="36" width="72" height="20" fill="#F87171" rx="3"/>
    
    <!-- Frosting -->
    <path d="M8 32 Q24 20 40 32 Q56 20 72 32 Q88 20 96 32 L96 32 Q88 24 72 32 Q56 24 40 32 Q24 24 8 32 Z" fill="#FFF8F0"/>
    
    <!-- Candles -->
    <rect x="24" y="8" width="8" height="24" fill="#FBBF24"/>
    <rect x="44" y="4" width="8" height="28" fill="#F59E0B"/>
    <rect x="64" y="8" width="8" height="24" fill="#FBBF24"/>
    
    <!-- Flames -->
    <ellipse cx="28" cy="4" rx="6" ry="8" fill="#F97316"/>
    <ellipse cx="48" cy="0" rx="6" ry="8" fill="#EF4444"/>
    <ellipse cx="68" cy="4" rx="6" ry="8" fill="#F97316"/>
  </g>
  
  <!-- Text - KY -->
  <text x="96" y="165" text-anchor="middle" font-family="Arial, sans-serif" font-size="24" font-weight="bold" fill="#F97316">KY</text>
</svg>
